# xmcd
# 
# Track frame offsets:
#     150
#     10889
#     23560
# 
# Disc length: 624
# 
# Revision: 1
# Processed by: cddbd v1.5.2PL0 Copyright (c) Steve Scherf et al.
# Submitted via: fre:ac v1.0.17
# 
DISCID=14026e03
DTITLE=Disneyland After Dark - Standin' On The Never Never 
DYEAR=1985
DGENRE=Rock
TTITLE0=Up, Up Over The Mountain Top
TTITLE1=Marlboro Man
TTITLE2=Never Never (Indian Love...)
EXTD=
EXTT0=
EXTT1=
EXTT2=
PLAYORDER=
